<svg width="340" height="268" viewBox="0 0 340 268" fill="none" xmlns="http://www.w3.org/2000/svg">
<g opacity="0.5">
<path d="M82.191 0.00267321L2.48226 0.0870335C1.11131 0.0884844 0.00110673 1.21667 0.00254724 2.60692L0.0872848 84.3875C0.0887253 85.7777 1.20127 86.9036 2.57222 86.9021L82.281 86.8178C83.6519 86.8163 84.7621 85.6881 84.7607 84.2979L84.676 2.5173C84.6745 1.12706 83.562 0.00122226 82.191 0.00267321Z" fill="#EAE6FF"/>
<path d="M79.0046 7.40584C79.8287 7.40584 80.4967 6.72842 80.4967 5.89277C80.4967 5.05712 79.8287 4.3797 79.0046 4.3797C78.1806 4.3797 77.5126 5.05712 77.5126 5.89277C77.5126 6.72842 78.1806 7.40584 79.0046 7.40584Z" fill="#B2D4FF"/>
<path d="M73.3241 7.43301C74.1482 7.43301 74.8162 6.75559 74.8162 5.91994C74.8162 5.08429 74.1482 4.40686 73.3241 4.40686C72.5001 4.40686 71.832 5.08429 71.832 5.91994C71.832 6.75559 72.5001 7.43301 73.3241 7.43301Z" fill="#B2D4FF"/>
<path d="M67.6435 7.46016C68.4675 7.46016 69.1356 6.78274 69.1356 5.94709C69.1356 5.11144 68.4675 4.43402 67.6435 4.43402C66.8194 4.43402 66.1514 5.11144 66.1514 5.94709C66.1514 6.78274 66.8194 7.46016 67.6435 7.46016Z" fill="#B2D4FF"/>
<path d="M35.7747 8.32871L6.06036 8.18623C5.51735 8.18623 4.99658 7.96748 4.61261 7.57811C4.22865 7.18874 4.01294 6.66065 4.01294 6.11C4.01294 5.55934 4.22865 5.03124 4.61261 4.64187C4.99658 4.2525 5.51735 4.03375 6.06036 4.03375L35.7747 4.17624C36.3177 4.17624 36.8385 4.39499 37.2224 4.78436C37.6064 5.17373 37.8221 5.70183 37.8221 6.25248C37.8221 6.80313 37.6064 7.33122 37.2224 7.72059C36.8385 8.10996 36.3177 8.32871 35.7747 8.32871Z" fill="#B2D4FF"/>
<path d="M77.5862 14.2113H6.97699C5.27716 14.2113 3.89917 15.6087 3.89917 17.3324V68.553C3.89917 70.2768 5.27716 71.6742 6.97699 71.6742H77.5862C79.286 71.6742 80.664 70.2768 80.664 68.553V17.3324C80.664 15.6087 79.286 14.2113 77.5862 14.2113Z" fill="white"/>
<path d="M12.5237 25.5492C11.9807 25.5492 11.46 25.3305 11.076 24.9411C10.692 24.5517 10.4763 24.0237 10.4763 23.473C10.4763 22.9223 10.692 22.3943 11.076 22.0049C11.46 21.6155 11.9807 21.3968 12.5237 21.3968L73.411 21.3357C73.954 21.3357 74.4748 21.5544 74.8588 21.9438C75.2427 22.3332 75.4584 22.8613 75.4584 23.4119C75.4584 23.9626 75.2427 24.4907 74.8588 24.8801C74.4748 25.2694 73.954 25.4882 73.411 25.4882L12.5237 25.5492Z" fill="#DFE1E5"/>
<path d="M12.4769 34.5123C11.9339 34.5123 11.4131 34.2935 11.0292 33.9042C10.6452 33.5148 10.4295 32.9867 10.4295 32.436C10.4295 31.8854 10.6452 31.3573 11.0292 30.9679C11.4131 30.5785 11.9339 30.3598 12.4769 30.3598L62.5985 30.2377C63.1415 30.2377 63.6623 30.4564 64.0463 30.8458C64.4302 31.2352 64.6459 31.7633 64.6459 32.3139C64.6459 32.8646 64.4302 33.3927 64.0463 33.782C63.6623 34.1714 63.1415 34.3901 62.5985 34.3901L12.4769 34.5123Z" fill="#DFE1E5"/>
<path d="M12.4769 62.0666C11.9339 62.0666 11.4131 61.8478 11.0292 61.4584C10.6452 61.0691 10.4295 60.541 10.4295 59.9903C10.4295 59.4397 10.6452 58.9116 11.0292 58.5222C11.4131 58.1328 11.9339 57.9141 12.4769 57.9141L54.3486 57.7852C54.8916 57.7852 55.4124 58.0039 55.7964 58.3933C56.1803 58.7826 56.396 59.3107 56.396 59.8614C56.396 60.4121 56.1803 60.9401 55.7964 61.3295C55.4124 61.7189 54.8916 61.9376 54.3486 61.9376L12.4836 62.0666H12.4769Z" fill="#DFE1E5"/>
<path d="M32.5162 80.5084C31.9732 80.5084 31.4524 80.2897 31.0684 79.9003C30.6845 79.5109 30.4688 78.9828 30.4688 78.4322C30.4688 77.8815 30.6845 77.3534 31.0684 76.9641C31.4524 76.5747 31.9732 76.356 32.5162 76.356H52.2677C52.8107 76.356 53.3315 76.5747 53.7155 76.9641C54.0994 77.3534 54.3151 77.8815 54.3151 78.4322C54.3151 78.9828 54.0994 79.5109 53.7155 79.9003C53.3315 80.2897 52.8107 80.5084 52.2677 80.5084H32.5162Z" fill="#B2D4FF"/>
</g>
<path d="M203.589 145.014C203.59 145.444 203.507 145.87 203.346 146.268C203.184 146.665 202.947 147.027 202.647 147.331C202.348 147.636 201.992 147.877 201.6 148.042C201.208 148.207 200.788 148.291 200.364 148.291L122.148 148.38C121.292 148.378 120.472 148.033 119.867 147.42C119.261 146.807 118.919 145.977 118.916 145.109L118.769 4.37302C118.768 3.94298 118.851 3.51698 119.012 3.11942C119.174 2.72185 119.411 2.36051 119.711 2.05611C120.01 1.75171 120.366 1.5102 120.758 1.34542C121.15 1.18065 121.57 1.09583 121.994 1.09583L200.21 1.00763C201.066 1.00941 201.886 1.35433 202.491 1.96707C203.097 2.57981 203.439 3.4106 203.442 4.27803V18.0925L203.502 75.9353L203.589 145.014Z" fill="#EAE6FF"/>
<path d="M151.307 142.022C150.764 142.022 150.243 141.803 149.859 141.414C149.475 141.025 149.259 140.497 149.259 139.946C149.259 139.395 149.475 138.867 149.859 138.478C150.243 138.088 150.764 137.87 151.307 137.87H171.058C171.601 137.87 172.122 138.088 172.506 138.478C172.89 138.867 173.106 139.395 173.106 139.946C173.106 140.497 172.89 141.025 172.506 141.414C172.122 141.803 171.601 142.022 171.058 142.022H151.307Z" fill="#B2D4FF"/>
<path d="M196.343 15.3445H125.734C124.034 15.3445 122.656 16.7419 122.656 18.4657V69.6863C122.656 71.41 124.034 72.8074 125.734 72.8074H196.343C198.043 72.8074 199.421 71.41 199.421 69.6863V18.4657C199.421 16.7419 198.043 15.3445 196.343 15.3445Z" fill="#C0B6F2"/>
<path d="M196.283 75.7996H125.674C123.974 75.7996 122.596 77.1969 122.596 78.9207V130.141C122.596 131.865 123.974 133.262 125.674 133.262H196.283C197.983 133.262 199.361 131.865 199.361 130.141V78.9207C199.361 77.1969 197.983 75.7996 196.283 75.7996Z" fill="#EFF7FF"/>
<path d="M126.597 84.973C126.054 84.973 125.533 84.7543 125.149 84.3649C124.765 83.9755 124.55 83.4474 124.55 82.8968C124.55 82.3461 124.765 81.818 125.149 81.4287C125.533 81.0393 126.054 80.8206 126.597 80.8206L187.484 80.7663C187.763 80.7501 188.041 80.7918 188.303 80.8886C188.565 80.9855 188.804 81.1356 189.007 81.3296C189.21 81.5237 189.371 81.7577 189.481 82.0172C189.592 82.2768 189.649 82.5565 189.649 82.8391C189.649 83.1218 189.592 83.4014 189.481 83.661C189.371 83.9205 189.21 84.1545 189.007 84.3486C188.804 84.5427 188.565 84.6927 188.303 84.7896C188.041 84.8865 187.763 84.9281 187.484 84.912L126.597 84.973Z" fill="#9CB4DB"/>
<path d="M126.55 93.9429C126.007 93.9429 125.486 93.7242 125.102 93.3348C124.719 92.9455 124.503 92.4174 124.503 91.8667C124.503 91.3161 124.719 90.788 125.102 90.3986C125.486 90.0092 126.007 89.7905 126.55 89.7905L176.672 89.6616C177.215 89.6616 177.736 89.8803 178.12 90.2697C178.504 90.6591 178.719 91.1871 178.719 91.7378C178.719 92.2884 178.504 92.8166 178.12 93.2059C177.736 93.5953 177.215 93.814 176.672 93.814L126.544 93.9429H126.55Z" fill="#9CB4DB"/>
<path d="M126.55 103.123C126.007 103.123 125.486 102.904 125.102 102.515C124.719 102.126 124.503 101.598 124.503 101.047C124.503 100.496 124.719 99.9682 125.102 99.5788C125.486 99.1895 126.007 98.9707 126.55 98.9707L187.438 98.8418C187.981 98.8418 188.501 99.0606 188.885 99.4499C189.269 99.8393 189.485 100.367 189.485 100.918C189.485 101.469 189.269 101.997 188.885 102.386C188.501 102.776 187.981 102.994 187.438 102.994L126.55 103.123Z" fill="#9CB4DB"/>
<path d="M138.507 125.127H126.677C125.48 125.127 124.51 126.111 124.51 127.325V129.225C124.51 130.439 125.48 131.424 126.677 131.424H138.507C139.704 131.424 140.675 130.439 140.675 129.225V127.325C140.675 126.111 139.704 125.127 138.507 125.127Z" fill="#31CBFF"/>
<path d="M197.929 8.41018C198.753 8.41018 199.421 7.73275 199.421 6.8971C199.421 6.06146 198.753 5.38403 197.929 5.38403C197.105 5.38403 196.437 6.06146 196.437 6.8971C196.437 7.73275 197.105 8.41018 197.929 8.41018Z" fill="#B2D4FF"/>
<path d="M192.248 8.43734C193.072 8.43734 193.74 7.75991 193.74 6.92426C193.74 6.08862 193.072 5.41119 192.248 5.41119C191.424 5.41119 190.756 6.08862 190.756 6.92426C190.756 7.75991 191.424 8.43734 192.248 8.43734Z" fill="#B2D4FF"/>
<path d="M186.568 8.46451C187.392 8.46451 188.06 7.78707 188.06 6.95143C188.06 6.11578 187.392 5.43835 186.568 5.43835C185.744 5.43835 185.076 6.11578 185.076 6.95143C185.076 7.78707 185.744 8.46451 186.568 8.46451Z" fill="#B2D4FF"/>
<path d="M154.699 9.33976L124.998 9.19727C124.455 9.19727 123.934 8.97853 123.55 8.58916C123.166 8.19979 122.951 7.67169 122.951 7.12103C122.951 6.57038 123.166 6.04229 123.55 5.65292C123.934 5.26355 124.455 5.0448 124.998 5.0448L154.712 5.18729C155.255 5.18729 155.776 5.40603 156.16 5.7954C156.544 6.18477 156.76 6.71287 156.76 7.26352C156.76 7.81418 156.544 8.34227 156.16 8.73164C155.776 9.12101 155.255 9.33976 154.712 9.33976H154.699Z" fill="#B2D4FF"/>
<path d="M196.496 75.4332L125.793 75.5083C124.09 75.5101 122.71 76.912 122.712 78.6395L122.765 129.928C122.767 131.655 124.149 133.054 125.853 133.053L196.555 132.978C198.259 132.976 199.639 131.574 199.637 129.846L199.584 78.5579C199.582 76.8304 198.2 75.4314 196.496 75.4332Z" fill="white"/>
<path d="M126.697 129.633C126.174 129.602 125.681 129.37 125.321 128.983C124.961 128.596 124.76 128.085 124.76 127.553C124.76 127.021 124.961 126.509 125.321 126.123C125.681 125.736 126.174 125.504 126.697 125.473H155.803C156.082 125.457 156.362 125.499 156.624 125.596C156.887 125.693 157.127 125.844 157.33 126.039C157.534 126.233 157.696 126.468 157.806 126.728C157.917 126.989 157.974 127.269 157.974 127.553C157.974 127.836 157.917 128.117 157.806 128.377C157.696 128.638 157.534 128.873 157.33 129.067C157.127 129.262 156.887 129.412 156.624 129.51C156.362 129.607 156.082 129.649 155.803 129.633H126.691H126.697Z" fill="#DFE1E5"/>
<path d="M199.588 77.652L199.642 121.904L139.852 121.965H122.77L122.716 77.7198C122.715 77.427 122.772 77.1369 122.881 76.8661C122.991 76.5953 123.153 76.3492 123.357 76.1418C123.561 75.9344 123.803 75.7699 124.07 75.6576C124.336 75.5453 124.622 75.4876 124.911 75.4876L197.394 75.4061C197.683 75.4061 197.97 75.4644 198.238 75.5775C198.506 75.6906 198.748 75.8563 198.953 76.0652C199.157 76.274 199.318 76.5217 199.427 76.7941C199.536 77.0664 199.591 77.358 199.588 77.652Z" fill="url(#paint0_linear_3_528)"/>
<path opacity="0.29" d="M119.01 21.8446C119.219 21.821 119.429 21.821 119.638 21.8446L189.699 30.6652C190.51 30.7686 191.247 31.1938 191.748 31.8477C192.25 32.5015 192.476 33.3305 192.375 34.1527L186.159 84.973C186.058 85.7937 185.639 86.54 184.996 87.0487C184.353 87.5573 183.537 87.7868 182.727 87.687L119.063 79.6806L119.01 21.8446Z" fill="#4B4C4C"/>
<path d="M176.905 27.8594L107.341 15.5898C105.666 15.2944 104.072 16.4316 103.78 18.1297L95.1013 68.5885C94.8093 70.2867 95.9301 71.9027 97.6048 72.1981L167.169 84.4676C168.844 84.763 170.439 83.6259 170.731 81.9278L179.409 31.4689C179.701 29.7708 178.58 28.1548 176.905 27.8594Z" fill="url(#paint1_linear_3_528)"/>
<path d="M110.492 27.863C110.001 27.7256 109.577 27.4073 109.305 26.9704C109.033 26.5334 108.931 26.0092 109.02 25.5002C109.109 24.9912 109.381 24.534 109.785 24.2181C110.188 23.9022 110.693 23.7502 111.201 23.7919L171.199 34.3699C171.483 34.3919 171.761 34.4741 172.012 34.6112C172.264 34.7483 172.484 34.9373 172.659 35.166C172.835 35.3946 172.961 35.658 173.03 35.9391C173.099 36.2201 173.109 36.5127 173.06 36.798C173.01 37.0833 172.903 37.355 172.744 37.5956C172.585 37.8362 172.378 38.0405 172.137 38.1952C171.895 38.3499 171.625 38.4517 171.342 38.494C171.059 38.5364 170.771 38.5183 170.496 38.4409L110.492 27.8358V27.863Z" fill="url(#paint2_linear_3_528)"/>
<path d="M108.94 36.6903C108.45 36.5525 108.028 36.2347 107.756 35.7987C107.484 35.3626 107.382 34.8397 107.47 34.3316C107.557 33.8235 107.828 33.3667 108.23 33.0501C108.632 32.7336 109.135 32.58 109.642 32.6192L159.035 41.2702C159.525 41.408 159.947 41.7258 160.219 42.1618C160.49 42.5979 160.592 43.1209 160.505 43.629C160.417 44.1371 160.146 44.5938 159.744 44.9104C159.343 45.2269 158.839 45.3805 158.332 45.3413L108.94 36.6903Z" fill="url(#paint3_linear_3_528)"/>
<path d="M107.361 45.7349C106.871 45.5972 106.448 45.2793 106.177 44.8433C105.905 44.4073 105.803 43.8843 105.891 43.3762C105.978 42.8681 106.249 42.4113 106.651 42.0947C107.053 41.7782 107.556 41.6246 108.063 41.6639L168.067 52.1943C168.352 52.2163 168.629 52.2986 168.881 52.4357C169.132 52.5728 169.353 52.7617 169.528 52.9904C169.703 53.2191 169.83 53.4824 169.898 53.7635C169.967 54.0446 169.978 54.3371 169.928 54.6224C169.879 54.9077 169.772 55.1794 169.613 55.42C169.454 55.6607 169.247 55.8649 169.005 56.0196C168.764 56.1744 168.493 56.2762 168.211 56.3185C167.928 56.3608 167.64 56.3427 167.365 56.2654L107.361 45.7281V45.7349Z" fill="url(#paint4_linear_3_528)"/>
<path d="M105.802 54.7862C105.312 54.6484 104.89 54.3306 104.618 53.8946C104.346 53.4585 104.244 52.9355 104.332 52.4274C104.419 51.9194 104.69 51.4626 105.092 51.146C105.494 50.8295 105.997 50.6759 106.504 50.7151L166.482 61.2252C166.972 61.363 167.394 61.6808 167.666 62.1168C167.937 62.5529 168.039 63.0759 167.952 63.584C167.864 64.092 167.593 64.5489 167.191 64.8654C166.79 65.1819 166.286 65.3355 165.779 65.2963L105.775 54.7658L105.802 54.7862Z" fill="url(#paint5_linear_3_528)"/>
<path d="M104.256 63.8307C103.766 63.6929 103.344 63.3751 103.072 62.9391C102.8 62.503 102.698 61.98 102.786 61.4719C102.874 60.9639 103.145 60.507 103.546 60.1905C103.948 59.874 104.451 59.7204 104.959 59.7596L146.195 66.9382C146.479 66.9603 146.757 67.0425 147.008 67.1796C147.26 67.3167 147.48 67.5057 147.655 67.7343C147.831 67.963 147.957 68.2264 148.026 68.5074C148.095 68.7885 148.105 69.0811 148.056 69.3664C148.006 69.6517 147.899 69.9233 147.74 70.164C147.581 70.4046 147.374 70.6088 147.133 70.7636C146.891 70.9183 146.621 71.0201 146.338 71.0624C146.056 71.1047 145.767 71.0866 145.492 71.0093L104.256 63.8307Z" fill="url(#paint6_linear_3_528)"/>
<path d="M295.572 0.9905L218.58 1.07199C216.458 1.07423 214.741 2.81974 214.743 4.97068L214.951 205.259C214.953 207.41 216.674 209.152 218.795 209.15L295.787 209.069C297.909 209.066 299.626 207.321 299.624 205.17L299.416 4.88107C299.414 2.73012 297.693 0.988255 295.572 0.9905Z" fill="#EAE6FF"/>
<path d="M247.308 202.748C246.765 202.748 246.244 202.53 245.86 202.14C245.476 201.751 245.26 201.223 245.26 200.672C245.26 200.122 245.476 199.593 245.86 199.204C246.244 198.815 246.765 198.596 247.308 198.596H267.059C267.602 198.596 268.123 198.815 268.507 199.204C268.891 199.593 269.107 200.122 269.107 200.672C269.107 201.223 268.891 201.751 268.507 202.14C268.123 202.53 267.602 202.748 267.059 202.748H247.314H247.308Z" fill="#B2D4FF"/>
<path d="M293.736 8.38289C294.56 8.38289 295.228 7.70547 295.228 6.86982C295.228 6.03417 294.56 5.35675 293.736 5.35675C292.912 5.35675 292.244 6.03417 292.244 6.86982C292.244 7.70547 292.912 8.38289 293.736 8.38289Z" fill="#B2D4FF"/>
<path d="M288.056 8.41006C288.88 8.41006 289.548 7.73263 289.548 6.89698C289.548 6.06133 288.88 5.38391 288.056 5.38391C287.231 5.38391 286.563 6.06133 286.563 6.89698C286.563 7.73263 287.231 8.41006 288.056 8.41006Z" fill="#B2D4FF"/>
<path d="M282.375 8.43721C283.199 8.43721 283.867 7.75979 283.867 6.92414C283.867 6.0885 283.199 5.41107 282.375 5.41107C281.551 5.41107 280.883 6.0885 280.883 6.92414C280.883 7.75979 281.551 8.43721 282.375 8.43721Z" fill="#B2D4FF"/>
<path d="M250.506 9.31254L220.792 9.17005C220.249 9.17005 219.728 8.9513 219.344 8.56193C218.96 8.17256 218.744 7.64446 218.744 7.09381C218.744 6.54316 218.96 6.01505 219.344 5.62568C219.728 5.23631 220.249 5.01758 220.792 5.01758L250.506 5.16006C251.049 5.16006 251.57 5.37881 251.954 5.76818C252.338 6.15755 252.554 6.68564 252.554 7.23629C252.554 7.78694 252.338 8.31505 251.954 8.70442C251.57 9.09379 251.049 9.31254 250.506 9.31254Z" fill="#B2D4FF"/>
<path d="M292.257 75.881H221.648C219.948 75.881 218.57 77.2784 218.57 79.0021V130.223C218.57 131.946 219.948 133.344 221.648 133.344H292.257C293.957 133.344 295.335 131.946 295.335 130.223V79.0021C295.335 77.2784 293.957 75.881 292.257 75.881Z" fill="url(#paint7_linear_3_528)"/>
<path d="M222.565 84.9458C222.022 84.9458 221.501 84.727 221.117 84.3377C220.733 83.9483 220.517 83.4202 220.517 82.8695C220.517 82.3189 220.733 81.7908 221.117 81.4014C221.501 81.012 222.022 80.7933 222.565 80.7933L283.452 80.7322C283.995 80.7322 284.516 80.951 284.9 81.3404C285.284 81.7297 285.5 82.2578 285.5 82.8085C285.5 83.3591 285.284 83.8872 284.9 84.2766C284.516 84.666 283.995 84.8847 283.452 84.8847L222.565 84.9458Z" fill="url(#paint8_linear_3_528)"/>
<path d="M222.525 93.9089C221.982 93.9089 221.461 93.6901 221.077 93.3008C220.693 92.9114 220.477 92.3833 220.477 91.8326C220.477 91.282 220.693 90.7539 221.077 90.3645C221.461 89.9751 221.982 89.7564 222.525 89.7564L272.653 89.6343C273.196 89.6343 273.717 89.853 274.101 90.2424C274.485 90.6318 274.7 91.1599 274.7 91.7105C274.7 92.2612 274.485 92.7892 274.101 93.1786C273.717 93.568 273.196 93.7867 272.653 93.7867L222.531 93.9089H222.525Z" fill="url(#paint9_linear_3_528)"/>
<path d="M222.525 103.096C221.982 103.096 221.461 102.877 221.077 102.488C220.693 102.098 220.477 101.57 220.477 101.02C220.477 100.469 220.693 99.941 221.077 99.5516C221.461 99.1622 221.982 98.9435 222.525 98.9435L283.412 98.8146C283.955 98.8146 284.476 99.0333 284.86 99.4227C285.244 99.8121 285.459 100.34 285.459 100.891C285.459 101.441 285.244 101.97 284.86 102.359C284.476 102.748 283.955 102.967 283.412 102.967L222.525 103.096Z" fill="url(#paint10_linear_3_528)"/>
<path d="M292.747 136.071L221.817 136.146C220.11 136.148 218.727 137.553 218.729 139.284L218.782 190.736C218.784 192.467 220.169 193.869 221.877 193.867L292.807 193.792C294.514 193.79 295.897 192.385 295.895 190.654L295.842 139.202C295.84 137.471 294.454 136.069 292.747 136.071Z" fill="url(#paint11_linear_3_528)"/>
<path d="M222.398 189.748C222.118 189.764 221.837 189.722 221.574 189.625C221.31 189.527 221.069 189.376 220.865 189.181C220.661 188.986 220.499 188.75 220.388 188.489C220.277 188.228 220.219 187.946 220.219 187.662C220.219 187.377 220.277 187.096 220.388 186.835C220.499 186.573 220.661 186.338 220.865 186.143C221.069 185.947 221.31 185.796 221.574 185.699C221.837 185.601 222.118 185.559 222.398 185.575H251.597C252.142 185.575 252.664 185.795 253.049 186.186C253.434 186.576 253.651 187.106 253.651 187.658C253.651 188.211 253.434 188.741 253.049 189.131C252.664 189.522 252.142 189.741 251.597 189.741L222.398 189.775V189.748Z" fill="#DFE1E5"/>
<path d="M295.85 138.29L295.897 182.678L235.92 182.739H218.785L218.738 138.358C218.737 138.064 218.793 137.773 218.903 137.502C219.014 137.23 219.176 136.983 219.38 136.775C219.585 136.567 219.828 136.402 220.095 136.29C220.363 136.177 220.649 136.119 220.939 136.119L293.642 136.038C293.933 136.038 294.222 136.096 294.49 136.209C294.759 136.323 295.003 136.489 295.208 136.698C295.414 136.907 295.576 137.156 295.686 137.429C295.796 137.702 295.852 137.995 295.85 138.29Z" fill="url(#paint12_linear_3_528)"/>
<path d="M292.354 14.8424L221.424 14.9177C219.717 14.9196 218.334 16.3245 218.336 18.0557L218.389 69.507C218.391 71.2382 219.776 72.6402 221.484 72.6384L292.414 72.5631C294.121 72.5613 295.504 71.1564 295.502 69.4251L295.449 17.9738C295.447 16.2426 294.062 14.8406 292.354 14.8424Z" fill="white"/>
<path d="M222.016 68.5259C221.471 68.5259 220.949 68.3064 220.564 67.9158C220.179 67.5252 219.962 66.9953 219.962 66.4429C219.962 65.8904 220.179 65.3606 220.564 64.97C220.949 64.5793 221.471 64.3599 222.016 64.3599H251.215C251.741 64.3903 252.235 64.6233 252.596 65.0113C252.957 65.3992 253.159 65.9126 253.159 66.4463C253.159 66.9799 252.957 67.4934 252.596 67.8813C252.235 68.2692 251.741 68.5023 251.215 68.5327H222.023L222.016 68.5259Z" fill="#DFE1E5"/>
<path d="M295.449 17.0611L295.496 61.4491L235.525 61.5169H218.383L218.336 17.1357C218.335 16.842 218.392 16.551 218.502 16.2794C218.612 16.0077 218.774 15.7608 218.979 15.5528C219.183 15.3448 219.426 15.1798 219.694 15.0672C219.961 14.9546 220.248 14.8966 220.538 14.8966L293.241 14.8152C293.532 14.8143 293.82 14.8718 294.088 14.9845C294.357 15.0971 294.601 15.2626 294.807 15.4714C295.012 15.6802 295.174 15.9282 295.285 16.2011C295.395 16.4739 295.451 16.7662 295.449 17.0611Z" fill="url(#paint13_linear_3_528)"/>
<path fill-rule="evenodd" clip-rule="evenodd" d="M256.963 37.8235L251.356 52.8931C247.429 51.3081 244.243 48.269 242.444 44.3914L256.923 37.7624L256.963 37.8235Z" fill="#BBCBFF"/>
<path fill-rule="evenodd" clip-rule="evenodd" d="M256.963 21.7835V37.8234L256.923 37.7895L242.444 44.3914C241.521 42.3302 241.064 40.0864 241.105 37.8234C241.105 37.5452 241.105 37.2603 241.105 36.9821C241.241 33.0261 242.881 29.2769 245.682 26.5195C245.715 26.5195 245.736 26.4787 245.736 26.4584C247.181 24.9483 248.917 23.7544 250.835 22.9504C252.754 22.1464 254.814 21.7492 256.889 21.7835H256.963Z" fill="#C7D4FF" fill-opacity="0.3"/>
<path fill-rule="evenodd" clip-rule="evenodd" d="M251.356 52.8931L256.963 37.8234V21.7835C258.883 21.7668 260.791 22.0977 262.597 22.7606C264.674 23.5822 266.556 24.8428 268.117 26.4584C270.965 29.2292 272.619 33.0283 272.72 37.0296C272.72 37.2965 272.72 37.5611 272.72 37.8234C272.764 39.9303 272.379 42.0236 271.588 43.9723C270.797 45.921 269.617 47.6829 268.123 49.1477C266.68 50.6774 264.941 51.8887 263.015 52.7059C261.089 53.5232 259.017 53.9287 256.929 53.8973C255.029 53.8872 253.144 53.5475 251.356 52.8931Z" fill="url(#paint14_linear_3_528)"/>
<path d="M161.798 146.025L161.57 147.247C161.082 149.411 159.67 152.783 156.378 157.865C156.378 157.865 153.407 163.008 146.195 161.97C145.203 161.824 144.193 162.067 143.371 162.649C140.273 164.854 131.896 170.112 121.331 170.825C119.549 170.948 117.759 170.935 115.979 170.784C113.59 170.576 111.23 170.109 108.94 169.393C107.532 168.965 106.153 168.446 104.811 167.839L106.504 153.543L107.762 142.965C107.762 142.965 119.913 146.683 125.921 146.432C130.401 146.202 134.743 144.784 138.514 142.321C142.822 139.45 143.726 135.976 144.636 131.098C144.976 129.343 145.986 127.795 147.446 126.792C148.905 125.788 150.697 125.409 152.431 125.738L154.598 126.152C155.277 126.222 155.948 126.349 156.606 126.532L158.948 126.979C159.879 127.159 160.701 127.705 161.236 128.499C161.77 129.293 161.972 130.269 161.798 131.213L160.921 135.963L159.543 143.372L160.078 143.474C160.637 143.586 161.131 143.916 161.452 144.393C161.774 144.87 161.898 145.456 161.798 146.025Z" fill="url(#paint15_linear_3_528)"/>
<path d="M121.311 170.818C119.529 170.941 117.739 170.928 115.959 170.777C113.577 170.57 111.224 170.106 108.94 169.393C108.806 166.984 107.996 152.607 107.943 151.63C108.344 158.428 113.51 169.651 121.311 170.818Z" fill="#CD6161"/>
<path d="M111.348 210.782C109.549 225.858 106.839 242.767 106.839 242.767L105.039 249.62L86.1104 246.906V246.743C86.0702 244.735 86.0278 242.726 85.9832 240.718L85.7825 230.988L85.7022 227.188C85.7022 226.917 85.7022 226.639 85.7022 226.361C85.7085 226.185 85.7308 226.01 85.7691 225.838C85.8082 225.685 85.8307 225.528 85.836 225.37C85.6743 225.375 85.5132 225.393 85.3543 225.424L84.8592 225.506C84.5352 225.559 84.2154 225.636 83.9024 225.736C83.575 225.815 83.2665 225.959 82.9953 226.161C82.724 226.362 82.4955 226.617 82.3233 226.91C82.0657 227.471 81.8834 228.064 81.7813 228.674C81.5605 229.624 81.3933 230.581 81.2461 231.551C80.5729 236.466 80.3869 241.437 80.6907 246.39L56.8109 245.033C56.8109 245.033 56.3693 236.742 56.0816 228.511C56.0816 228.294 56.0816 228.077 56.0816 227.867C56.0013 225.601 55.9344 223.362 55.8942 221.319C55.8942 221.089 55.8942 220.865 55.8942 220.641C55.834 217.533 55.8407 214.941 55.9478 213.503L56.396 130.793C56.396 130.793 55.4995 106.115 56.396 98.8078C57.2926 91.5003 63.2275 85.6515 69.5771 82.5643C71.9019 81.4389 74.3848 80.6858 76.9371 80.332C77.0241 80.332 77.6731 79.7756 77.7534 79.7214C78.4992 79.1988 79.2745 78.7208 80.0752 78.2897C82.5241 77.0269 85.1969 76.2726 87.937 76.071C88.7733 76.0031 95.1832 75.6164 95.1832 76.8716C95.1832 77.1566 94.5476 77.3059 94.3603 77.3737C93.6912 77.5908 92.9752 77.7401 92.2794 77.8962C90.5397 78.2693 88.7733 78.5747 87.0471 79.0564C86.7393 79.1446 86.4315 79.2193 86.1304 79.3278C85.8723 79.4038 85.6404 79.5519 85.4613 79.7553C85.6943 79.6719 85.9375 79.6217 86.184 79.606C86.465 79.606 86.746 79.606 87.027 79.5382C87.308 79.4703 87.6225 79.4839 87.9169 79.4703C89.3086 79.3889 90.7003 79.3617 92.092 79.3617C93.4837 79.3617 94.8152 79.3617 96.1735 79.5042C97.4776 79.6074 98.7601 79.9023 99.9806 80.3795C101.372 80.9562 100.155 81.2955 99.4922 81.3837C98.2739 81.5081 97.0499 81.5647 95.8256 81.5533C94.9223 81.5533 94.019 81.5533 93.1492 81.5873C92.2794 81.6212 91.4296 81.5873 90.5732 81.6415C90.0825 81.6444 89.5943 81.7129 89.1213 81.8451C89.4471 82.0338 89.7898 82.1906 90.145 82.3133C90.4862 82.4761 90.8141 82.6457 91.162 82.8221C91.8311 83.1818 92.5002 83.5685 93.1693 83.9824L93.2763 84.0435C93.7982 84.3759 94.3134 84.722 94.8152 85.0951C104.276 91.9481 105.179 103.829 105.628 108.843C106.076 113.857 109.094 143.61 109.094 143.61C109.094 143.61 113.148 195.672 111.348 210.782Z" fill="url(#paint16_linear_3_528)"/>
<path d="M38.8793 209.364C37.5794 210.716 36.6716 212.405 36.255 214.246C35.8384 216.086 35.9292 218.008 36.5174 219.799C36.9922 221.251 37.9169 222.507 39.1536 223.382C40.4147 224.275 41.9178 224.749 43.4558 224.739C43.2329 224.62 43.0402 224.45 42.8928 224.243C42.7454 224.036 42.6473 223.797 42.6061 223.545C42.2582 222.025 42.4656 220.478 42.4455 218.938C42.4254 217.397 41.8634 216.332 41.5021 214.921C40.9038 212.587 40.6313 210.18 40.6925 207.769C40.0302 208.229 39.4219 208.764 38.8793 209.364Z" fill="#CD6161"/>
<path d="M62.3911 222.873C60.681 224.997 58.5195 226.702 56.0681 227.86C55.9879 225.594 55.9209 223.355 55.8808 221.312C55.8808 221.082 55.8808 220.858 55.8808 220.634C60.3972 218.232 61.7755 213.32 61.3406 208.923C60.8923 204.357 58.1892 197.958 57.2859 190.651C57.0618 188.786 57.0416 186.902 57.2257 185.033C57.3901 183.378 57.6968 181.741 58.1423 180.141C58.346 179.22 58.6724 178.332 59.1125 177.501C59.059 177.976 59.0121 178.444 59.0055 178.919C58.8519 182.854 59.1324 186.793 59.8418 190.664C60.6967 194.495 61.7872 198.268 63.107 201.961C65.4488 208.787 67.4025 216.705 62.3911 222.873Z" fill="#CD6161"/>
<path d="M56.2555 135.013C56.2555 135.013 57.2725 149.038 48.7215 154.547C40.1706 160.057 34.7509 170.085 33.8476 178.295C32.9444 186.505 36.1025 197.49 37.4541 202.518C38.8056 207.545 41.0605 217.14 41.0605 217.14C41.0605 217.14 38.8056 217.594 39.2539 221.251C39.7022 224.909 41.5087 224.909 45.1151 224.909C45.1151 224.909 52.3213 224.447 57.2792 220.797C62.2372 217.146 61.7889 208 60.4373 204.343C60.4373 204.343 53.6728 189.26 59.0991 176.924L56.2555 135.013Z" fill="url(#paint17_linear_3_528)"/>
<path d="M98.2811 152.722H82.9589C77.9814 152.722 73.9463 156.814 73.9463 161.862V204.357C73.9463 209.404 77.9814 213.496 82.9589 213.496H98.2811C103.259 213.496 107.294 209.404 107.294 204.357V161.862C107.294 156.814 103.259 152.722 98.2811 152.722Z" fill="#FFCCCC"/>
<path d="M89.2685 138.1C96.9842 138.1 103.239 134.519 103.239 130.101C103.239 125.683 96.9842 122.101 89.2685 122.101C81.5527 122.101 75.2979 125.683 75.2979 130.101C75.2979 134.519 81.5527 138.1 89.2685 138.1Z" fill="#FFCCCC"/>
<path d="M79.754 128.038C82.7585 129.421 86.0256 130.119 89.325 130.083C92.6244 130.046 95.8757 129.276 98.8499 127.828" stroke="#2B2E40" stroke-width="1.79985" stroke-linecap="round" stroke-linejoin="round"/>
<path d="M124.871 264.221H85.2137V266.962H124.871V264.221Z" fill="#C0B6F2"/>
<path d="M81.6074 264.221H49.1632V266.962H81.6074V264.221Z" fill="#C0B6F2"/>
<path d="M80.6305 244.416L72.1397 244.572L72.0929 244.531C71.6445 243.08 70.7486 241.812 69.5369 240.916C68.3252 240.019 66.8618 239.541 65.3619 239.551H60.5377C60.0153 239.545 59.4972 239.647 59.0151 239.851C58.5331 240.055 58.0973 240.357 57.7345 240.739C57.3717 241.12 57.0896 241.572 56.9054 242.068C56.7213 242.564 56.639 243.093 56.6637 243.622L56.7507 245.311C55.7336 249.457 51.3979 257.416 50.0597 259.635C49.2532 261.01 48.9345 262.624 49.1565 264.208H81.6007V258.719C81.6074 256.452 80.6305 244.416 80.6305 244.416Z" fill="#344563"/>
<path d="M114.052 252.795C112.158 252.409 110.633 250.868 109.328 249.518C107.675 247.815 107.18 245.447 107.106 243.059V241.573C107.106 241.349 107.106 241.132 107.106 240.894H103.908C102.771 240.895 101.661 241.245 100.723 241.898C99.7857 242.55 99.065 243.476 98.6558 244.551H86.0635C85.2176 251.073 84.9333 257.657 85.2138 264.228H124.864C124.416 254.166 116.3 253.25 114.052 252.795Z" fill="#344563"/>
<path d="M94.2265 259.187C96.7134 259.187 98.7295 257.142 98.7295 254.621C98.7295 252.099 96.7134 250.054 94.2265 250.054C91.7396 250.054 89.7235 252.099 89.7235 254.621C89.7235 257.142 91.7396 259.187 94.2265 259.187Z" fill="#00E7FF"/>
<path d="M75.2979 259.648C76.5432 259.648 77.5527 257.604 77.5527 255.082C77.5527 252.56 76.5432 250.516 75.2979 250.516C74.0526 250.516 73.043 252.56 73.043 255.082C73.043 257.604 74.0526 259.648 75.2979 259.648Z" fill="#00E7FF"/>
<path d="M80.7108 110.682H80.7041C79.7101 110.682 78.9042 111.499 78.9042 112.507V116.171C78.9042 117.179 79.7101 117.996 80.7041 117.996H80.7108C81.7048 117.996 82.5106 117.179 82.5106 116.171V112.507C82.5106 111.499 81.7048 110.682 80.7108 110.682Z" fill="white"/>
<path d="M98.7361 110.682H98.7294C97.7354 110.682 96.9296 111.499 96.9296 112.507V116.171C96.9296 117.179 97.7354 117.996 98.7294 117.996H98.7361C99.7301 117.996 100.536 117.179 100.536 116.171V112.507C100.536 111.499 99.7301 110.682 98.7361 110.682Z" fill="white"/>
<path d="M97.8328 222.636C97.8328 222.636 88.3183 228.118 85.8628 234.971L85.662 225.377C85.662 225.377 93.7714 224.922 97.8328 222.636Z" fill="#CD6161"/>
<path d="M154.324 150.395C155.092 148.187 156.438 146.233 158.218 144.743C158.887 144.173 157.924 143.209 157.261 143.773C155.311 145.427 153.844 147.59 153.019 150.028C152.732 150.863 154.036 151.223 154.358 150.395H154.324Z" fill="#E68181"/>
<path d="M294.091 159.928H310.965V155.124H294.091V159.928Z" fill="#303048"/>
<path d="M266.952 205.354C267.752 205.734 268.636 205.896 269.516 205.823C270.396 205.75 271.242 205.446 271.971 204.94C287.574 194.084 289.273 171.164 289.367 170.194C289.414 168.859 288.947 167.558 288.065 166.567C287.182 165.576 285.954 164.972 284.64 164.884C283.326 164.796 282.03 165.23 281.026 166.095C280.023 166.959 279.39 168.186 279.264 169.515C279.264 169.814 277.758 188.513 266.27 196.499C265.54 197.01 264.956 197.707 264.575 198.518C264.194 199.33 264.03 200.229 264.099 201.126C264.168 202.022 264.468 202.884 264.969 203.626C265.469 204.368 266.153 204.964 266.952 205.354Z" fill="#2B2E40"/>
<path d="M268.995 204.573L265.586 197.913C264.696 196.173 262.583 195.495 260.868 196.398L254.3 199.855C252.584 200.758 251.916 202.9 252.806 204.639L256.215 211.3C257.105 213.039 259.218 213.717 260.933 212.815L267.501 209.358C269.216 208.455 269.885 206.313 268.995 204.573Z" fill="#505F79"/>
<path d="M298.835 155.266H315.763C316.927 155.266 317.87 154.31 317.87 153.129V121.674C317.87 120.493 316.927 119.536 315.763 119.536H298.835C297.671 119.536 296.727 120.493 296.727 121.674V153.129C296.727 154.31 297.671 155.266 298.835 155.266Z" fill="url(#paint18_linear_3_528)"/>
<path d="M289.307 155.321H306.221C307.389 155.321 308.336 154.361 308.336 153.177V121.674C308.336 120.489 307.389 119.529 306.221 119.529H289.307C288.139 119.529 287.192 120.489 287.192 121.674V153.177C287.192 154.361 288.139 155.321 289.307 155.321Z" fill="url(#paint19_linear_3_528)"/>
<path d="M283.546 132.659H310.932C311.952 132.659 312.778 131.82 312.778 130.786V130.779C312.778 129.745 311.952 128.907 310.932 128.907H283.546C282.526 128.907 281.699 129.745 281.699 130.779V130.786C281.699 131.82 282.526 132.659 283.546 132.659Z" fill="#303047"/>
<path d="M301.27 140.74H306.844C307.355 140.742 307.851 140.562 308.245 140.23C308.639 139.899 308.905 139.438 308.998 138.928L310.336 131.397H297.764L299.102 138.955C299.201 139.463 299.472 139.919 299.868 140.245C300.264 140.571 300.76 140.746 301.27 140.74Z" fill="#303047"/>
<path d="M287.527 140.74H293.1C293.61 140.74 294.104 140.559 294.495 140.228C294.886 139.897 295.151 139.437 295.242 138.928L296.58 131.369H284.014L285.352 138.928C285.444 139.442 285.713 139.907 286.112 140.239C286.51 140.57 287.012 140.748 287.527 140.74Z" fill="#303047"/>
<mask id="mask0_3_528" style="mask-type:luminance" maskUnits="userSpaceOnUse" x="285" y="131" width="10" height="8">
<path d="M287.875 138.982H292.753C292.995 138.982 293.23 138.893 293.414 138.733C293.598 138.572 293.719 138.35 293.756 138.107L294.7 131.716H285.921L286.871 138.107C286.908 138.35 287.029 138.572 287.213 138.733C287.397 138.893 287.632 138.982 287.875 138.982Z" fill="white"/>
</mask>
<g mask="url(#mask0_3_528)">
<path d="M287.875 138.982H292.753C292.995 138.982 293.23 138.894 293.414 138.733C293.598 138.572 293.719 138.35 293.756 138.107L294.7 131.716H285.921L286.871 138.107C286.908 138.35 287.029 138.572 287.213 138.733C287.398 138.894 287.632 138.982 287.875 138.982Z" fill="#00CCFF"/>
<path d="M284.873 132.099L294.165 139.763L296.17 137.262L286.878 129.599L284.873 132.099Z" fill="#67FFCC"/>
</g>
<mask id="mask1_3_528" style="mask-type:luminance" maskUnits="userSpaceOnUse" x="299" y="131" width="10" height="8">
<path d="M301.638 138.982H306.516C306.758 138.982 306.993 138.893 307.177 138.733C307.361 138.572 307.483 138.35 307.519 138.107L308.469 131.716H299.671L300.621 138.107C300.657 138.353 300.78 138.578 300.967 138.739C301.154 138.9 301.393 138.987 301.638 138.982Z" fill="white"/>
</mask>
<g mask="url(#mask1_3_528)">
<path d="M301.638 138.982H306.516C306.758 138.982 306.993 138.893 307.177 138.733C307.361 138.572 307.482 138.35 307.519 138.107L308.469 131.716H299.671L300.621 138.107C300.657 138.353 300.78 138.578 300.967 138.739C301.154 138.9 301.392 138.987 301.638 138.982Z" fill="#00CCFF"/>
<path d="M298.425 132.093L307.716 139.756L309.722 137.256L300.43 129.593L298.425 132.093Z" fill="#67FFCC"/>
</g>
<path d="M297.777 256.839L288.316 259.173C284.295 241.93 284.295 223.974 288.316 206.731L297.777 209.065C294.111 224.773 294.111 241.132 297.777 256.839Z" fill="#2B2E40"/>
<mask id="mask2_3_528" style="mask-type:luminance" maskUnits="userSpaceOnUse" x="272" y="248" width="27" height="20">
<path d="M296.667 251.94C296.705 251.94 296.741 251.953 296.772 251.976C296.802 252 296.824 252.032 296.834 252.069C297.081 252.958 298.533 258.176 298.6 259.173C298.667 260.171 298.6 267.098 298.6 267.098H272.68C272.68 267.098 271.402 260.239 278.314 259.173C285.225 258.108 286.236 255.102 286.409 252.727C286.519 251.502 286.519 250.269 286.409 249.043C286.409 249.043 289.36 248.365 290.183 249.722C290.431 250.129 290.645 250.502 290.819 250.821C291.028 251.201 291.335 251.516 291.708 251.731C292.081 251.946 292.504 252.054 292.933 252.042L296.667 251.94Z" fill="white"/>
</mask>
<g mask="url(#mask2_3_528)">
<path d="M296.801 251.934C296.801 251.934 298.527 258.108 298.601 259.173C298.674 260.239 298.601 267.098 298.601 267.098H272.68C272.68 267.098 271.402 260.239 278.314 259.173C285.225 258.108 286.236 255.102 286.41 252.727C286.519 251.502 286.519 250.269 286.41 249.043C286.41 249.043 289.36 248.365 290.183 249.722C290.431 250.129 290.645 250.495 290.819 250.821C291.028 251.201 291.335 251.516 291.708 251.731C292.081 251.946 292.505 252.054 292.933 252.042L296.801 251.934Z" fill="#EAE6FF"/>
<path d="M298.634 264.432H272.586V267.098H298.634V264.432Z" fill="url(#paint20_linear_3_528)"/>
</g>
<path d="M293.964 262.525C295.346 262.525 296.466 261.389 296.466 259.987C296.466 258.586 295.346 257.45 293.964 257.45C292.582 257.45 291.461 258.586 291.461 259.987C291.461 261.389 292.582 262.525 293.964 262.525Z" fill="#88ACFF"/>
<path d="M319.938 256.839L310.483 259.173C306.462 241.93 306.462 223.974 310.483 206.731L319.938 209.065C316.271 224.773 316.271 241.132 319.938 256.839Z" fill="#2B2E40"/>
<path d="M318.827 251.94C318.866 251.94 318.904 251.952 318.935 251.976C318.966 251.999 318.989 252.032 319.001 252.069C319.249 252.958 320.694 258.176 320.767 259.173C320.841 260.171 320.767 267.098 320.767 267.098H294.847C294.847 267.098 293.569 260.239 300.481 259.173C307.392 258.108 308.403 255.102 308.577 252.727C308.686 251.502 308.686 250.269 308.577 249.043C308.577 249.043 311.521 248.365 312.35 249.722C312.598 250.129 312.805 250.502 312.986 250.821C313.194 251.2 313.501 251.514 313.872 251.729C314.243 251.944 314.666 252.053 315.093 252.042L318.827 251.94Z" fill="#B2D4FF"/>
<mask id="mask3_3_528" style="mask-type:luminance" maskUnits="userSpaceOnUse" x="294" y="248" width="27" height="20">
<path d="M318.827 251.94C318.866 251.94 318.904 251.952 318.935 251.976C318.966 251.999 318.989 252.032 319.001 252.069C319.249 252.958 320.694 258.176 320.767 259.173C320.841 260.171 320.767 267.098 320.767 267.098H294.847C294.847 267.098 293.569 260.239 300.481 259.173C307.392 258.108 308.403 255.102 308.577 252.727C308.686 251.502 308.686 250.269 308.577 249.043C308.577 249.043 311.521 248.365 312.35 249.722C312.598 250.129 312.805 250.502 312.986 250.821C313.194 251.2 313.501 251.514 313.872 251.729C314.243 251.944 314.666 252.053 315.093 252.042L318.827 251.94Z" fill="white"/>
</mask>
<g mask="url(#mask3_3_528)">
<path d="M318.961 251.934C318.961 251.934 320.687 258.108 320.767 259.173C320.848 260.239 320.767 267.098 320.767 267.098H294.847C294.847 267.098 293.569 260.239 300.481 259.173C307.392 258.108 308.403 255.102 308.577 252.727C308.686 251.502 308.686 250.269 308.577 249.043C308.577 249.043 311.521 248.365 312.35 249.722C312.598 250.129 312.805 250.495 312.986 250.821C313.194 251.2 313.501 251.514 313.872 251.729C314.243 251.944 314.666 252.053 315.093 252.042L318.961 251.934Z" fill="#F2EDF2"/>
<path d="M320.801 264.432H294.753V267.098H320.801V264.432Z" fill="url(#paint21_linear_3_528)"/>
</g>
<path d="M316.131 262.525C317.513 262.525 318.633 261.389 318.633 259.987C318.633 258.586 317.513 257.45 316.131 257.45C314.748 257.45 313.628 258.586 313.628 259.987C313.628 261.389 314.748 262.525 316.131 262.525Z" fill="#88ACFF"/>
<path d="M294.064 215.213H321.764C324.004 215.213 325.819 213.372 325.819 211.101V165.173C325.819 162.902 324.004 161.061 321.764 161.061H294.064C291.825 161.061 290.009 162.902 290.009 165.173V211.101C290.009 213.372 291.825 215.213 294.064 215.213Z" fill="url(#paint22_linear_3_528)"/>
<path d="M282.1 213.784L309.787 213.902C312.03 213.911 313.855 212.075 313.865 209.8L314.055 163.784C314.064 161.51 312.254 159.658 310.011 159.649L282.324 159.531C280.081 159.522 278.255 161.358 278.246 163.632L278.055 209.648C278.046 211.923 279.857 213.775 282.1 213.784Z" fill="url(#paint23_linear_3_528)"/>
<g opacity="0.49">
<path d="M289.849 170.445V180.88" stroke="#303048" stroke-width="1.45193" stroke-linecap="round" stroke-linejoin="round"/>
<path d="M286.657 170.445V180.88" stroke="#303048" stroke-width="1.45193" stroke-linecap="round" stroke-linejoin="round"/>
<path d="M283.466 170.445V180.88" stroke="#303048" stroke-width="1.45193" stroke-linecap="round" stroke-linejoin="round"/>
<path d="M293.836 171.917C294.439 171.917 294.927 171.422 294.927 170.811C294.927 170.2 294.439 169.705 293.836 169.705C293.234 169.705 292.746 170.2 292.746 170.811C292.746 171.422 293.234 171.917 293.836 171.917Z" fill="#FF6666"/>
<path d="M293.836 175.886C294.439 175.886 294.927 175.391 294.927 174.78C294.927 174.17 294.439 173.674 293.836 173.674C293.234 173.674 292.746 174.17 292.746 174.78C292.746 175.391 293.234 175.886 293.836 175.886Z" fill="#FF9966"/>
</g>
<path d="M336.183 207.274C337.004 206.942 337.724 206.398 338.272 205.695C338.821 204.993 339.178 204.157 339.308 203.271C342.105 184.273 326.709 167.419 326.046 166.706C325.105 165.823 323.868 165.335 322.585 165.34C321.303 165.345 320.07 165.844 319.136 166.736C318.202 167.627 317.636 168.844 317.552 170.142C317.469 171.44 317.874 172.722 318.686 173.729C318.887 173.946 331.399 187.781 329.318 201.751C329.183 202.646 329.284 203.561 329.611 204.403C329.938 205.245 330.479 205.985 331.179 206.546C331.88 207.107 332.714 207.47 333.598 207.598C334.482 207.726 335.383 207.614 336.21 207.274H336.183Z" fill="#2B2E40"/>
<path d="M337.077 205.227L329.946 203.221C328.083 202.697 326.155 203.804 325.638 205.692L323.661 212.924C323.144 214.812 324.235 216.768 326.098 217.292L333.229 219.297C335.091 219.821 337.019 218.714 337.536 216.826L339.513 209.594C340.03 207.706 338.939 205.75 337.077 205.227Z" fill="#505F79"/>
<path d="M226.086 167.254L218.872 169.387L220.755 175.933L227.969 173.8L226.086 167.254Z" fill="#E86456"/>
<path d="M180.566 54.1823C180.376 53.0149 180.365 51.8249 180.533 50.6541C180.701 49.4414 180.679 48.2092 180.466 47.0037C180.118 45.6467 179.716 44.2897 179.348 42.9326C179.188 42.3356 178.927 39.9879 178.131 39.859C177.91 39.8251 177.729 40.0218 177.615 40.2186C177.114 41.0735 177.401 41.7317 177.502 42.6273C177.673 44.107 177.765 45.5952 177.776 47.0851C177.776 48.0011 177.95 49.2428 177.107 49.7992L176.311 47.1937C176.243 46.9666 176.093 46.7737 175.892 46.6527C175.691 46.5317 175.452 46.4915 175.223 46.54C174.994 46.5885 174.791 46.7222 174.654 46.9147C174.517 47.1073 174.457 47.3448 174.484 47.5804L174.718 49.7517C174.899 51.4208 174.966 53.8906 176.291 55.1119C176.7 55.7113 177.002 56.3799 177.18 57.0863L180.78 55.6004L180.566 54.1823Z" fill="#F17B6B"/>
<path d="M169.546 85.4954C168.391 85.2831 167.211 85.2534 166.047 85.4072C164.851 85.563 163.638 85.524 162.454 85.2919C161.116 84.9255 159.777 84.5048 158.479 84.1181C157.897 83.9484 155.582 83.6499 155.468 82.8425C155.468 82.6253 155.636 82.4354 155.823 82.3268C156.673 81.8315 157.322 82.1232 158.205 82.2386C159.661 82.4272 161.126 82.5382 162.594 82.5711C163.504 82.5711 164.722 82.7678 165.271 81.8925L162.708 81.058C162.488 80.9842 162.302 80.8302 162.188 80.6258C162.073 80.4214 162.037 80.1811 162.087 79.9515C162.137 79.7218 162.269 79.5192 162.458 79.3826C162.647 79.2461 162.879 79.1855 163.109 79.2124L165.25 79.4703C166.89 79.6738 169.325 79.7688 170.51 81.1258C171.097 81.5479 171.754 81.8603 172.45 82.0486L170.944 85.6854L169.546 85.4954Z" fill="#F17B6B"/>
<mask id="mask4_3_528" style="mask-type:luminance" maskUnits="userSpaceOnUse" x="176" y="53" width="38" height="27">
<path d="M213.766 71.5047C208.498 74.3065 203.005 76.6512 197.347 78.5137C194.67 79.3211 192.911 80.617 190.368 79.355C189.098 78.6441 187.964 77.7063 187.023 76.5867C182.914 72.0814 177.401 60.5061 176.163 57.8463C176.083 57.6947 176.063 57.5179 176.106 57.3516C176.15 57.1854 176.254 57.042 176.397 56.9507L180.887 53.7617C181.042 53.6532 181.233 53.6109 181.418 53.6439C181.603 53.677 181.768 53.7826 181.877 53.9381C182.801 55.2612 185.27 58.803 188.762 63.9732C189.617 65.2674 190.535 66.5175 191.512 67.7186C192.068 68.4173 192.678 69.0686 193.339 69.6659C193.615 69.8979 193.952 70.0433 194.309 70.0843C194.665 70.1252 195.026 70.06 195.346 69.8966C203.275 65.7238 208.42 62.528 210.595 61.1303C210.675 61.076 210.755 61.0217 210.842 60.9742C212.348 64.3099 213.335 67.8623 213.766 71.5047Z" fill="white"/>
</mask>
<g mask="url(#mask4_3_528)">
<path d="M213.766 71.5047C208.498 74.3065 203.005 76.6512 197.347 78.5137C194.67 79.3211 192.911 80.617 190.368 79.355C189.098 78.6441 187.964 77.7063 187.023 76.5867C182.914 72.0814 177.401 60.5061 176.163 57.8463C176.083 57.6947 176.063 57.5179 176.106 57.3516C176.15 57.1854 176.254 57.042 176.397 56.9507L180.887 53.7617C181.042 53.6532 181.233 53.6109 181.418 53.6439C181.603 53.677 181.768 53.7826 181.877 53.9381C182.801 55.2612 185.27 58.803 188.762 63.9732C189.617 65.2674 190.535 66.5175 191.512 67.7186C192.068 68.4173 192.678 69.0686 193.339 69.6659C193.615 69.8979 193.952 70.0433 194.309 70.0843C194.665 70.1252 195.026 70.06 195.346 69.8966C203.275 65.7238 208.42 62.528 210.595 61.1303C210.675 61.076 210.755 61.0217 210.842 60.9742C212.348 64.3099 213.335 67.8623 213.766 71.5047Z" fill="#1F2231"/>
<path d="M185.082 78.4729C185.772 79.377 186.57 80.1907 187.458 80.8952C188.484 81.6231 189.585 82.2351 190.743 82.7204C191.485 83.0528 192.496 83.4939 193.312 83.0868C194.704 82.4083 194.724 80.6102 193.841 79.5246C193.206 78.873 192.411 78.4046 191.539 78.1676C190.632 77.8525 189.803 77.3408 189.11 76.6681C188.48 75.9401 187.731 75.3273 186.895 74.8565C185.785 74.3544 184.159 74.6393 184.038 76.0913C184.088 76.9878 184.459 77.8349 185.082 78.4729Z" fill="#454D6A"/>
</g>
<path d="M199.889 170.166L192.377 170.343L192.534 177.16L200.045 176.983L199.889 170.166Z" fill="#E86456"/>
<mask id="mask5_3_528" style="mask-type:luminance" maskUnits="userSpaceOnUse" x="183" y="173" width="19" height="17">
<path d="M201.114 188.174L201.147 189.579L183.349 189.999C183.25 189.54 183.2 189.072 183.202 188.602C183.202 187.245 183.644 185.284 185.999 184.721C189.739 183.832 192.656 181.552 192.275 173.735C192.275 173.735 195.815 172.853 195.306 176.45L200.057 176.334C200.192 178.357 200.501 180.364 200.98 182.332C201.475 183.9 201.114 188.174 201.114 188.174Z" fill="white"/>
</mask>
<g mask="url(#mask5_3_528)">
<path d="M201.114 188.174L201.147 189.579L183.349 189.999C183.25 189.54 183.2 189.072 183.202 188.602C183.202 187.245 183.644 185.284 185.999 184.721C189.739 183.832 192.657 181.552 192.275 173.735C192.275 173.735 195.815 172.853 195.306 176.45L200.057 176.334C200.192 178.357 200.501 180.364 200.98 182.332C201.475 183.9 201.114 188.174 201.114 188.174Z" fill="#25293A"/>
<path d="M197.962 186.247C199.001 186.247 199.843 185.394 199.843 184.341C199.843 183.288 199.001 182.434 197.962 182.434C196.924 182.434 196.082 183.288 196.082 184.341C196.082 185.394 196.924 186.247 197.962 186.247Z" fill="#00E7FF"/>
<path d="M201.324 188.206L182.36 188.642L182.468 193.492L201.432 193.056L201.324 188.206Z" fill="#00E7FF"/>
</g>
<mask id="mask6_3_528" style="mask-type:luminance" maskUnits="userSpaceOnUse" x="186" y="99" width="19" height="74">
<path d="M191.82 172.786C191.676 172.784 191.536 172.734 191.421 172.645C191.306 172.556 191.223 172.431 191.184 172.29C190.729 170.533 190.455 168.681 190.121 166.903C189.706 164.677 189.324 162.445 188.976 160.206C188.294 155.809 187.739 151.39 187.31 146.948C186.039 133.67 187.183 120.982 192.375 108.619C193.673 105.518 196.45 98.5093 200.599 99.5949C203.402 100.321 204.339 104.182 204.493 106.679C204.954 113.959 204.258 121.253 203.322 128.465C202.72 133.14 201.903 137.788 201.589 142.49C201.274 147.192 201.763 151.779 202.311 156.434L203.228 164.202C203.516 166.625 204.058 169.183 204.151 171.666C204.152 171.834 204.092 171.996 203.982 172.121C203.872 172.247 203.72 172.326 203.556 172.345C201.335 172.453 193.847 172.704 191.82 172.786Z" fill="white"/>
</mask>
<g mask="url(#mask6_3_528)">
<path d="M191.82 172.786C191.676 172.784 191.536 172.734 191.421 172.645C191.306 172.556 191.223 172.431 191.184 172.29C190.729 170.533 190.455 168.681 190.121 166.903C189.706 164.677 189.324 162.445 188.976 160.206C188.294 155.809 187.739 151.39 187.31 146.948C186.039 133.67 187.183 120.982 192.375 108.619C193.673 105.518 196.45 98.5093 200.598 99.5949C203.402 100.321 204.339 104.182 204.493 106.679C204.954 113.959 204.258 121.253 203.322 128.465C202.72 133.14 201.903 137.788 201.589 142.49C201.274 147.192 201.763 151.779 202.311 156.434L203.228 164.202C203.516 166.625 204.058 169.183 204.151 171.666C204.152 171.834 204.092 171.996 203.982 172.121C203.872 172.247 203.72 172.326 203.556 172.345C201.334 172.453 193.847 172.704 191.82 172.786Z" fill="url(#paint24_linear_3_528)"/>
<path d="M189.031 140.696L188.997 140.698C185.624 140.936 183.08 143.901 183.314 147.321L183.582 151.247C183.817 154.668 186.741 157.248 190.114 157.011L190.147 157.009C193.52 156.771 196.065 153.806 195.831 150.385L195.562 146.459C195.328 143.039 192.404 140.458 189.031 140.696Z" fill="#454D6A"/>
</g>
<path d="M214.656 110.437L190.997 112.595C191.325 106.489 190.857 100.463 190.576 94.3364C190.339 89.3607 190.277 84.3669 190.388 79.355C190.388 78.3915 190.442 77.428 190.468 76.4645C190.516 73.5199 190.868 70.5885 191.519 67.7185C192.891 62.2226 195.935 57.9616 202.633 55.9668C203.81 55.614 204.994 55.1322 206.192 55.4986L206.366 55.5597C207.236 55.9763 207.99 56.6059 208.561 57.3916C209.471 58.4848 210.244 59.6882 210.862 60.9742C212.368 64.3098 213.355 67.8622 213.786 71.5046C214.107 73.7233 214.308 75.9081 214.489 77.9233C214.71 80.6577 215.379 110.363 214.656 110.437Z" fill="#25293A"/>
<mask id="mask7_3_528" style="mask-type:luminance" maskUnits="userSpaceOnUse" x="169" y="57" width="38" height="35">
<path d="M195.654 62.9215C195.253 65.5066 194.209 71.525 192.041 80.3116C191.948 80.6635 191.755 80.9799 191.487 81.2213C191.218 81.4627 190.884 81.6183 190.529 81.6687C189.391 81.8315 187.264 81.879 183.296 81.3769C177.16 80.6102 172.912 80.142 171.312 79.9656C171.127 79.9484 170.942 80.0054 170.797 80.1245C170.652 80.2437 170.558 80.4155 170.536 80.6034L169.921 86.1265C169.9 86.2949 169.939 86.4653 170.031 86.6071C170.123 86.749 170.262 86.8528 170.423 86.9C173.206 87.7142 185.41 91.1949 191.459 91.0524C198.317 90.8896 198.15 87.9991 199.735 84.4777C201.321 80.9562 206.125 68.1053 206.185 61.9512C206.232 57.4934 202.211 56.1635 198.959 58.0091C198.077 58.5196 197.32 59.2273 196.748 60.0785C196.175 60.9296 195.801 61.9019 195.654 62.9215Z" fill="white"/>
</mask>
<g mask="url(#mask7_3_528)">
<path d="M195.654 62.9215C195.253 65.5066 194.209 71.525 192.041 80.3116C191.948 80.6635 191.755 80.9799 191.487 81.2213C191.218 81.4627 190.884 81.6183 190.529 81.6687C189.391 81.8315 187.264 81.879 183.296 81.3769C177.16 80.6102 172.912 80.142 171.312 79.9656C171.127 79.9484 170.942 80.0054 170.797 80.1245C170.652 80.2437 170.558 80.4155 170.536 80.6034L169.921 86.1265C169.9 86.2949 169.939 86.4653 170.031 86.6071C170.123 86.749 170.262 86.8528 170.423 86.9C173.206 87.7142 185.41 91.1949 191.459 91.0524C198.317 90.8896 198.15 87.9991 199.735 84.4777C201.321 80.9562 206.125 68.1053 206.185 61.9512C206.232 57.4934 202.211 56.1635 198.959 58.0091C198.077 58.5196 197.32 59.2273 196.748 60.0785C196.175 60.9296 195.801 61.9019 195.654 62.9215Z" fill="#1F2231"/>
<path d="M195.252 92.6604C196.287 92.2067 197.262 91.6256 198.156 90.9302C199.111 90.1114 199.971 89.1849 200.719 88.1687C201.227 87.4902 201.903 86.6353 201.716 85.7397C201.401 84.1927 199.709 83.7041 198.444 84.3284C197.672 84.7899 197.037 85.453 196.604 86.2485C196.08 87.0713 195.383 87.7664 194.563 88.2841C193.711 88.7221 192.939 89.305 192.282 90.0075C191.519 90.971 191.392 92.6401 192.743 93.1218C193.54 93.4 194.53 92.9929 195.252 92.6604Z" fill="#454D6A"/>
</g>
<path d="M200.498 68.3564C202.109 68.3564 203.415 67.0319 203.415 65.3981C203.415 63.7643 202.109 62.4398 200.498 62.4398C198.887 62.4398 197.581 63.7643 197.581 65.3981C197.581 67.0319 198.887 68.3564 200.498 68.3564Z" fill="#00E7FF"/>
<path d="M197.324 69.5175L196.95 71.1429C196.896 71.3764 197.039 71.61 197.269 71.6645L200.377 72.4008C200.608 72.4554 200.838 72.3103 200.892 72.0768L201.266 70.4514C201.32 70.2179 201.177 69.9843 200.947 69.9298L197.839 69.1935C197.608 69.1389 197.378 69.284 197.324 69.5175Z" fill="#00E7FF"/>
<path d="M193.319 51.3665C193.319 51.3665 191.733 57.1678 191.312 58.4501L193.76 57.8734L198.069 52.14L193.319 51.3665Z" fill="#232048"/>
<path d="M194.476 45.416C194.577 45.416 194.122 46.142 194.082 46.1962C193.842 46.4877 193.528 46.7056 193.173 46.8255C192.819 46.9454 192.438 46.9624 192.074 46.8747C191.706 46.834 191.338 46.773 190.97 46.7526C190.91 46.7526 189.893 46.6983 189.993 46.8612C189.993 46.8612 190.662 47.9671 192.777 48.0486C194.891 48.13 196.296 45.4702 196.296 45.4702L194.476 45.416Z" fill="#232638"/>
<path d="M191.8 38.8141C191.8 38.8141 190.114 40.6121 189.973 41.1142C189.833 41.6163 190.214 42.0302 190.843 42.5187C191.472 43.0073 191.8 38.8141 191.8 38.8141Z" fill="#E86456"/>
<path d="M192.021 37.7624L190.328 44.2218C190.321 44.2506 190.325 44.2808 190.338 44.3071C190.352 44.3333 190.374 44.3536 190.402 44.3643C192.126 45.0225 193.924 45.4624 195.754 45.6738C195.754 45.6738 195.246 48.9646 190.04 46.8748C190.04 46.8748 189.371 49.5888 189.686 50.5794C190 51.57 190.616 52.3028 193.031 52.3842C194.202 52.3928 195.371 52.5017 196.524 52.7099L201.274 40.3204L192.021 37.7624Z" fill="#F17B6B"/>
<path d="M193.257 38.8524L192.823 40.3639C192.735 40.6734 192.91 40.9972 193.215 41.0872C193.52 41.1772 193.84 40.9993 193.928 40.6899L194.362 39.1784C194.451 38.869 194.275 38.5452 193.97 38.4551C193.665 38.3651 193.346 38.543 193.257 38.8524Z" fill="#21304A"/>
<path d="M217.232 35.8219C217.406 39.6826 217.66 43.5908 216.77 47.3904C216.409 48.9239 215.847 50.6066 214.663 51.6922C213.586 52.6828 212.227 52.7642 210.862 52.9474C209.758 53.0967 207.999 52.6896 207.296 53.7956C207.045 54.3045 206.841 54.836 206.687 55.3833C206.152 56.781 205.028 57.4595 203.77 58.0566C203.716 57.7377 203.703 57.3781 203.676 57.0728C202.86 58.6944 201.328 59.2915 199.575 59.495L199.608 58.613C199.509 59.0077 199.272 59.3524 198.941 59.5833C198.61 59.8141 198.207 59.9154 197.808 59.8682C196.276 59.8071 194.102 59.5018 193.198 60.3499C193.706 57.4297 194.702 54.6187 196.142 52.0382C198.491 47.9197 200.719 41.1278 200.719 41.1278C200.719 41.1278 190.984 38.2984 190.355 37.6131C189.726 36.9278 190.355 31.398 193.118 28.399C196.397 24.8165 201.147 24.6197 205.476 25.9428C210.421 27.4627 216.757 29.7017 217.232 35.8219Z" fill="url(#paint25_linear_3_528)"/>
<path d="M232.42 183.37L232.815 184.727L215.74 189.836C215.524 189.419 215.355 188.977 215.238 188.52C214.89 187.204 214.81 185.202 216.938 184.035C220.323 182.19 222.551 179.225 220.176 171.775C220.176 171.775 223.368 169.983 223.809 173.62L228.359 172.263C229.011 174.18 229.829 176.035 230.801 177.807C231.671 179.15 232.42 183.37 232.42 183.37Z" fill="#F17B6B"/>
<mask id="mask8_3_528" style="mask-type:luminance" maskUnits="userSpaceOnUse" x="215" y="171" width="18" height="19">
<path d="M232.42 183.37L232.815 184.727L215.74 189.836C215.524 189.419 215.355 188.977 215.238 188.52C214.89 187.204 214.81 185.202 216.938 184.035C220.323 182.19 222.551 179.225 220.176 171.775C220.176 171.775 223.368 169.983 223.809 173.62L228.359 172.263C229.011 174.18 229.829 176.035 230.801 177.807C231.671 179.15 232.42 183.37 232.42 183.37Z" fill="white"/>
</mask>
<g mask="url(#mask8_3_528)">
<path d="M232.42 183.37L232.815 184.727L215.74 189.836C215.523 189.419 215.355 188.977 215.238 188.52C214.89 187.204 214.81 185.202 216.938 184.035C220.323 182.19 222.551 179.225 220.176 171.775C220.176 171.775 223.368 169.983 223.809 173.62L228.359 172.263C229.011 174.18 229.829 176.035 230.801 177.807C231.671 179.15 232.42 183.37 232.42 183.37Z" fill="#25293A"/>
<path d="M228.392 182.407C229.431 182.407 230.273 181.553 230.273 180.5C230.273 179.447 229.431 178.594 228.392 178.594C227.354 178.594 226.512 179.447 226.512 180.5C226.512 181.553 227.354 182.407 228.392 182.407Z" fill="#00E7FF"/>
<path d="M232.645 183.335L214.449 188.77L215.8 193.423L233.996 187.989L232.645 183.335Z" fill="#00E7FF"/>
</g>
<mask id="mask9_3_528" style="mask-type:luminance" maskUnits="userSpaceOnUse" x="191" y="104" width="39" height="68">
<path d="M191.512 114.074C191.512 114.271 191.593 114.495 191.66 114.753C192.151 116.557 193.005 118.239 194.169 119.692C196.771 123.024 201.355 124.72 202.037 129.32C203.015 135.634 204.65 141.825 206.915 147.789C208.48 152.01 210.173 156.18 211.993 160.301C212.912 162.395 213.864 164.474 214.85 166.537C215.633 168.185 216.389 169.929 217.292 171.517C217.366 171.645 217.48 171.745 217.615 171.801C217.751 171.857 217.9 171.867 218.042 171.829C220.009 171.239 227.255 169 229.383 168.233C229.54 168.173 229.669 168.055 229.745 167.903C229.821 167.751 229.837 167.576 229.791 167.412C229.062 165.037 227.864 162.662 226.954 160.389C225.986 157.938 225.014 155.49 224.037 153.048C222.291 148.651 220.618 144.288 219.708 139.62C218.945 135.746 218.483 131.831 218.008 127.916C217.144 119.886 215.841 111.91 214.108 104.026C214.295 104.813 211.532 106.217 210.996 106.407C209.511 106.943 207.872 107.181 206.346 107.595C203.808 108.267 201.318 109.113 198.892 110.125C198.08 110.456 197.295 110.851 196.544 111.306C195.665 111.734 194.726 112.022 193.76 112.161C192.021 112.554 191.238 112.507 191.512 114.074Z" fill="white"/>
</mask>
<g mask="url(#mask9_3_528)">
<path d="M191.512 114.074C191.512 114.271 191.593 114.495 191.66 114.753C192.151 116.557 193.005 118.239 194.169 119.692C196.771 123.024 201.355 124.72 202.037 129.32C203.015 135.634 204.65 141.825 206.915 147.789C208.48 152.01 210.173 156.18 211.993 160.301C212.912 162.395 213.864 164.474 214.85 166.537C215.633 168.185 216.389 169.929 217.292 171.517C217.366 171.645 217.48 171.745 217.615 171.801C217.751 171.857 217.9 171.867 218.042 171.829C220.009 171.239 227.255 169 229.383 168.233C229.54 168.173 229.669 168.055 229.745 167.903C229.821 167.751 229.837 167.576 229.791 167.412C229.062 165.037 227.864 162.662 226.954 160.389C225.986 157.938 225.014 155.49 224.037 153.048C222.291 148.651 220.618 144.288 219.708 139.62C218.945 135.746 218.483 131.831 218.008 127.916C217.144 119.886 215.841 111.91 214.108 104.026C214.295 104.813 211.532 106.217 210.996 106.407C209.511 106.943 207.872 107.181 206.346 107.595C203.808 108.267 201.318 109.113 198.892 110.125C198.08 110.456 197.295 110.851 196.544 111.306C195.665 111.734 194.726 112.022 193.76 112.161C192.021 112.554 191.238 112.507 191.512 114.074Z" fill="#25293A"/>
<path d="M207.111 141.176L207.08 141.187C203.909 142.377 202.289 145.948 203.462 149.164L204.808 152.855C205.981 156.071 209.503 157.713 212.674 156.524L212.706 156.512C215.877 155.323 217.497 151.751 216.324 148.535L214.977 144.845C213.804 141.629 210.283 139.986 207.111 141.176Z" fill="#454D6A"/>
</g>
<path d="M204.439 100.531H202.526C202.075 100.531 201.709 100.902 201.709 101.359V105.993C201.709 106.45 202.075 106.821 202.526 106.821H204.439C204.89 106.821 205.255 106.45 205.255 105.993V101.359C205.255 100.902 204.89 100.531 204.439 100.531Z" fill="#454D6A"/>
<path d="M197.173 100.531H195.259C194.808 100.531 194.443 100.902 194.443 101.359V105.993C194.443 106.45 194.808 106.821 195.259 106.821H197.173C197.624 106.821 197.989 106.45 197.989 105.993V101.359C197.989 100.902 197.624 100.531 197.173 100.531Z" fill="#454D6A"/>
<path d="M211.003 100.531H209.089C208.638 100.531 208.273 100.902 208.273 101.359V105.993C208.273 106.45 208.638 106.821 209.089 106.821H211.003C211.454 106.821 211.819 106.45 211.819 105.993V101.359C211.819 100.902 211.454 100.531 211.003 100.531Z" fill="#454D6A"/>
<path d="M200.023 189.104H191.271C189.535 189.104 188.127 190.531 188.127 192.293C188.127 194.054 189.535 195.482 191.271 195.482H200.023C201.76 195.482 203.168 194.054 203.168 192.293C203.168 190.531 201.76 189.104 200.023 189.104Z" fill="#998DD9"/>
<path d="M203.696 203.529H194.945C193.208 203.529 191.8 204.957 191.8 206.718C191.8 208.479 193.208 209.907 194.945 209.907H203.696C205.433 209.907 206.841 208.479 206.841 206.718C206.841 204.957 205.433 203.529 203.696 203.529Z" fill="#998DD9"/>
<path d="M207.758 217.995H197.875C196.139 217.995 194.731 219.422 194.731 221.183C194.731 222.945 196.139 224.372 197.875 224.372H207.758C209.495 224.372 210.903 222.945 210.903 221.183C210.903 219.422 209.495 217.995 207.758 217.995Z" fill="#998DD9"/>
<path d="M209.845 232.508H201.094C199.357 232.508 197.949 233.936 197.949 235.697C197.949 237.458 199.357 238.886 201.094 238.886H209.845C211.582 238.886 212.99 237.458 212.99 235.697C212.99 233.936 211.582 232.508 209.845 232.508Z" fill="#998DD9"/>
<path d="M215.225 247.014H203.041C201.304 247.014 199.896 248.442 199.896 250.203C199.896 251.965 201.304 253.392 203.041 253.392H215.225C216.962 253.392 218.37 251.965 218.37 250.203C218.37 248.442 216.962 247.014 215.225 247.014Z" fill="#998DD9"/>
<path d="M155.261 154.602H182.941" stroke="#998DD9" stroke-width="6.28945" stroke-linecap="round" stroke-linejoin="round"/>
<path d="M135.349 263.617L157.114 141.879C157.621 139.026 159.1 136.444 161.292 134.584C163.485 132.724 166.252 131.704 169.111 131.702C171.97 131.704 174.737 132.724 176.93 134.584C179.123 136.444 180.601 139.026 181.108 141.879L202.86 263.617" stroke="#C0B6F2" stroke-width="6.28945" stroke-linecap="round" stroke-linejoin="round"/>
<defs>
<linearGradient id="paint0_linear_3_528" x1="140.615" y1="91.385" x2="216.866" y2="119.003" gradientUnits="userSpaceOnUse">
<stop stop-color="#AEC4D5"/>
<stop offset="1" stop-color="#7896AD"/>
</linearGradient>
<linearGradient id="paint1_linear_3_528" x1="95.0738" y1="49.5991" x2="238.999" y2="51.0491" gradientUnits="userSpaceOnUse">
<stop stop-color="#DEEBFF"/>
<stop offset="1" stop-color="white"/>
</linearGradient>
<linearGradient id="paint2_linear_3_528" x1="108.799" y1="31.1198" x2="172.891" y2="31.1198" gradientUnits="userSpaceOnUse">
<stop stop-color="#C1C7D0"/>
<stop offset="1" stop-color="#DFE1E5"/>
</linearGradient>
<linearGradient id="paint3_linear_3_528" x1="107.234" y1="38.9701" x2="160.721" y2="38.9701" gradientUnits="userSpaceOnUse">
<stop stop-color="#C1C7D0"/>
<stop offset="1" stop-color="#DFE1E5"/>
</linearGradient>
<linearGradient id="paint4_linear_3_528" x1="105.668" y1="48.9578" x2="169.767" y2="48.9578" gradientUnits="userSpaceOnUse">
<stop stop-color="#C1C7D0"/>
<stop offset="1" stop-color="#DFE1E5"/>
</linearGradient>
<linearGradient id="paint5_linear_3_528" x1="104.102" y1="58.0023" x2="168.208" y2="58.0023" gradientUnits="userSpaceOnUse">
<stop stop-color="#C1C7D0"/>
<stop offset="1" stop-color="#DFE1E5"/>
</linearGradient>
<linearGradient id="paint6_linear_3_528" x1="102.543" y1="65.3845" x2="147.894" y2="65.3845" gradientUnits="userSpaceOnUse">
<stop stop-color="#C1C7D0"/>
<stop offset="1" stop-color="#DFE1E5"/>
</linearGradient>
<linearGradient id="paint7_linear_3_528" x1="222.468" y1="92.783" x2="301.576" y2="119.14" gradientUnits="userSpaceOnUse">
<stop stop-color="white"/>
<stop offset="0.33" stop-color="#FCFEFF"/>
<stop offset="0.53" stop-color="#F4F9FF"/>
<stop offset="0.7" stop-color="#E6F1FF"/>
<stop offset="0.84" stop-color="#D1E5FF"/>
<stop offset="0.98" stop-color="#B7D7FF"/>
<stop offset="1" stop-color="#B2D4FF"/>
</linearGradient>
<linearGradient id="paint8_linear_3_528" x1="220.517" y1="82.8356" x2="285.52" y2="82.8356" gradientUnits="userSpaceOnUse">
<stop stop-color="#DFE1E5"/>
<stop offset="1" stop-color="#C1C7D0"/>
</linearGradient>
<linearGradient id="paint9_linear_3_528" x1="220.477" y1="91.7716" x2="274.694" y2="91.7716" gradientUnits="userSpaceOnUse">
<stop stop-color="#DFE1E5"/>
<stop offset="1" stop-color="#C1C7D0"/>
</linearGradient>
<linearGradient id="paint10_linear_3_528" x1="220.477" y1="100.959" x2="285.473" y2="100.959" gradientUnits="userSpaceOnUse">
<stop stop-color="#DFE1E5"/>
<stop offset="1" stop-color="#C1C7D0"/>
</linearGradient>
<linearGradient id="paint11_linear_3_528" x1="218.737" y1="164.955" x2="295.904" y2="164.955" gradientUnits="userSpaceOnUse">
<stop stop-color="white"/>
<stop offset="0.33" stop-color="#FCFEFF"/>
<stop offset="0.53" stop-color="#F4F9FF"/>
<stop offset="0.7" stop-color="#E6F1FF"/>
<stop offset="0.84" stop-color="#D1E5FF"/>
<stop offset="0.98" stop-color="#B7D7FF"/>
<stop offset="1" stop-color="#B2D4FF"/>
</linearGradient>
<linearGradient id="paint12_linear_3_528" x1="257.01" y1="180.765" x2="258.049" y2="114.054" gradientUnits="userSpaceOnUse">
<stop stop-color="#B3BCD9"/>
<stop offset="1" stop-color="#79A6CF"/>
</linearGradient>
<linearGradient id="paint13_linear_3_528" x1="256.608" y1="59.5357" x2="257.654" y2="-7.16802" gradientUnits="userSpaceOnUse">
<stop stop-color="#7B8AB8"/>
<stop offset="1" stop-color="#FFC2D1"/>
</linearGradient>
<linearGradient id="paint14_linear_3_528" x1="262.048" y1="21.7835" x2="262.048" y2="53.8702" gradientUnits="userSpaceOnUse">
<stop stop-color="white"/>
<stop offset="1" stop-color="#FFDDCE"/>
</linearGradient>
<linearGradient id="paint15_linear_3_528" x1="37.0057" y1="148.257" x2="187.678" y2="148.257" gradientUnits="userSpaceOnUse">
<stop stop-color="#FE5746"/>
<stop offset="1" stop-color="#EE9AEB"/>
</linearGradient>
<linearGradient id="paint16_linear_3_528" x1="85.4212" y1="81.3769" x2="82.3319" y2="225.029" gradientUnits="userSpaceOnUse">
<stop stop-color="#FE5746"/>
<stop offset="1" stop-color="#EE9AEB"/>
</linearGradient>
<linearGradient id="paint17_linear_3_528" x1="107.26" y1="119.272" x2="32.4135" y2="204.012" gradientUnits="userSpaceOnUse">
<stop stop-color="#FE5746"/>
<stop offset="1" stop-color="#EE9AEB"/>
</linearGradient>
<linearGradient id="paint18_linear_3_528" x1="307.292" y1="161.597" x2="307.292" y2="126.701" gradientUnits="userSpaceOnUse">
<stop stop-color="#77A6FF"/>
<stop offset="1" stop-color="#E5CDFF"/>
</linearGradient>
<linearGradient id="paint19_linear_3_528" x1="297.764" y1="249.186" x2="297.764" y2="106.441" gradientUnits="userSpaceOnUse">
<stop stop-color="#589DB5"/>
<stop offset="0.06" stop-color="#64A4BA"/>
<stop offset="0.28" stop-color="#94BDCD"/>
<stop offset="0.5" stop-color="#BAD2DC"/>
<stop offset="0.69" stop-color="#D5E0E7"/>
<stop offset="0.87" stop-color="#E5E9EE"/>
<stop offset="1" stop-color="#EBECF0"/>
</linearGradient>
<linearGradient id="paint20_linear_3_528" x1="298.634" y1="265.762" x2="272.586" y2="265.762" gradientUnits="userSpaceOnUse">
<stop stop-color="#77A6FF"/>
<stop offset="1" stop-color="#E5CDFF"/>
</linearGradient>
<linearGradient id="paint21_linear_3_528" x1="320.794" y1="265.762" x2="294.746" y2="265.762" gradientUnits="userSpaceOnUse">
<stop stop-color="#77A6FF"/>
<stop offset="1" stop-color="#E5CDFF"/>
</linearGradient>
<linearGradient id="paint22_linear_3_528" x1="306.837" y1="235.059" x2="306.837" y2="186.152" gradientUnits="userSpaceOnUse">
<stop stop-color="#77A6FF"/>
<stop offset="1" stop-color="#E5CDFF"/>
</linearGradient>
<linearGradient id="paint23_linear_3_528" x1="296.067" y1="260.175" x2="296.067" y2="168.434" gradientUnits="userSpaceOnUse">
<stop stop-color="#589DB5"/>
<stop offset="0.06" stop-color="#64A4BA"/>
<stop offset="0.28" stop-color="#94BDCD"/>
<stop offset="0.5" stop-color="#BAD2DC"/>
<stop offset="0.69" stop-color="#D5E0E7"/>
<stop offset="0.87" stop-color="#E5E9EE"/>
<stop offset="1" stop-color="#EBECF0"/>
</linearGradient>
<linearGradient id="paint24_linear_3_528" x1="195.895" y1="99.6153" x2="195.496" y2="160.885" gradientUnits="userSpaceOnUse">
<stop stop-color="#232738"/>
<stop offset="1" stop-color="#161B2D"/>
</linearGradient>
<linearGradient id="paint25_linear_3_528" x1="203.615" y1="64.5054" x2="203.832" y2="29.9707" gradientUnits="userSpaceOnUse">
<stop stop-color="#585590"/>
<stop offset="1" stop-color="#3C3873"/>
</linearGradient>
</defs>
</svg>
